<?xml version="1.0" encoding="UTF-8" standalone="no"?>
<!DOCTYPE svg PUBLIC "-//W3C//DTD SVG 1.1//EN"
 "http://www.w3.org/Graphics/SVG/1.1/DTD/svg11.dtd">
<!-- Generated by graphviz version 15.0.0 (0)
 -->
<!-- Title: store&#45;hub Pages: 1 -->
<svg width="987pt" height="895pt"
 viewBox="0.00 0.00 987.00 895.00" xmlns="http://www.w3.org/2000/svg" xmlns:xlink="http://www.w3.org/1999/xlink">
<g id="graph0" class="graph" transform="scale(1 1) rotate(0) translate(4 891.4)">
<title>store&#45;hub</title>
<polygon fill="#fafafa" stroke="none" points="-4,4 -4,-891.4 982.69,-891.4 982.69,4 -4,4"/>
<text xml:space="preserve" text-anchor="middle" x="489.34" y="-28.3" font-family="Helvetica,sans-Serif" font-size="9.00" fill="#555555">Pytanie: dlaczego extraction&#45;form, decision&#45;bar i citation&#45;badge zmieniają się razem?</text>
<text xml:space="preserve" text-anchor="middle" x="489.34" y="-17.5" font-family="Helvetica,sans-Serif" font-size="9.00" fill="#555555">Odpowiedź: wszystkie trzy czytają bezpośrednio case.store.ts (Ca=6).</text>
<text xml:space="preserve" text-anchor="middle" x="489.34" y="-6.7" font-family="Helvetica,sans-Serif" font-size="9.00" fill="#555555">Krawędzie czerwone = import store | przerywane niebieskie = import modeli | kropkowane = parent→child</text>
<g id="clust1" class="cluster">
<title>cluster_legend</title>
<polygon fill="#fafafa" stroke="#aaaaaa" stroke-dasharray="5,2" points="65.53,-48.4 65.53,-119.4 740.74,-119.4 740.74,-48.4 65.53,-48.4"/>
<text xml:space="preserve" text-anchor="middle" x="403.14" y="-107.3" font-family="Helvetica,sans-Serif" font-size="9.00">Legenda</text>
</g>
<g id="clust2" class="cluster">
<title>cluster_core</title>
<path fill="#e8f2ff" stroke="#4a90d9" stroke-width="1.5" d="M599.3,-281.4C599.3,-281.4 958.69,-281.4 958.69,-281.4 964.69,-281.4 970.69,-287.4 970.69,-293.4 970.69,-293.4 970.69,-658.4 970.69,-658.4 970.69,-664.4 964.69,-670.4 958.69,-670.4 958.69,-670.4 599.3,-670.4 599.3,-670.4 593.3,-670.4 587.3,-664.4 587.3,-658.4 587.3,-658.4 587.3,-293.4 587.3,-293.4 587.3,-287.4 593.3,-281.4 599.3,-281.4"/>
<text xml:space="preserve" text-anchor="middle" x="779" y="-656.5" font-family="Helvetica,sans-Serif" font-weight="bold" font-size="11.00">core/</text>
</g>
<g id="clust3" class="cluster">
<title>cluster_store</title>
<path fill="#d0e8ff" stroke="#4a90d9" stroke-width="1.5" d="M644.36,-544.4C644.36,-544.4 738.11,-544.4 738.11,-544.4 744.11,-544.4 750.11,-550.4 750.11,-556.4 750.11,-556.4 750.11,-621.4 750.11,-621.4 750.11,-627.4 744.11,-633.4 738.11,-633.4 738.11,-633.4 644.36,-633.4 644.36,-633.4 638.36,-633.4 632.36,-627.4 632.36,-621.4 632.36,-621.4 632.36,-556.4 632.36,-556.4 632.36,-550.4 638.36,-544.4 644.36,-544.4"/>
<text xml:space="preserve" text-anchor="middle" x="691.23" y="-621.3" font-family="Helvetica,sans-Serif" font-weight="bold" font-size="9.00">store/</text>
</g>
<g id="clust4" class="cluster">
<title>cluster_services</title>
<path fill="#d0e8ff" stroke="#4a90d9" stroke-width="1.5" d="M615.3,-297.4C615.3,-297.4 767.16,-297.4 767.16,-297.4 773.16,-297.4 779.16,-303.4 779.16,-309.4 779.16,-309.4 779.16,-516.4 779.16,-516.4 779.16,-522.4 773.16,-528.4 767.16,-528.4 767.16,-528.4 615.3,-528.4 615.3,-528.4 609.3,-528.4 603.3,-522.4 603.3,-516.4 603.3,-516.4 603.3,-309.4 603.3,-309.4 603.3,-303.4 609.3,-297.4 615.3,-297.4"/>
<text xml:space="preserve" text-anchor="middle" x="691.23" y="-516.3" font-family="Helvetica,sans-Serif" font-weight="bold" font-size="9.00">services/</text>
</g>
<g id="clust5" class="cluster">
<title>cluster_models</title>
<path fill="#d0e8ff" stroke="#4a90d9" stroke-width="1.5" d="M824.16,-545.4C824.16,-545.4 942.69,-545.4 942.69,-545.4 948.69,-545.4 954.69,-551.4 954.69,-557.4 954.69,-557.4 954.69,-620.4 954.69,-620.4 954.69,-626.4 948.69,-632.4 942.69,-632.4 942.69,-632.4 824.16,-632.4 824.16,-632.4 818.16,-632.4 812.16,-626.4 812.16,-620.4 812.16,-620.4 812.16,-557.4 812.16,-557.4 812.16,-551.4 818.16,-545.4 824.16,-545.4"/>
<text xml:space="preserve" text-anchor="middle" x="883.42" y="-620.3" font-family="Helvetica,sans-Serif" font-weight="bold" font-size="9.00">models/</text>
</g>
<g id="clust6" class="cluster">
<title>cluster_shared</title>
<path fill="#ebf7eb" stroke="#5a9a5a" stroke-width="1.5" d="M415.63,-630.4C415.63,-630.4 558.3,-630.4 558.3,-630.4 564.3,-630.4 570.3,-636.4 570.3,-642.4 570.3,-642.4 570.3,-867.4 570.3,-867.4 570.3,-873.4 564.3,-879.4 558.3,-879.4 558.3,-879.4 415.63,-879.4 415.63,-879.4 409.63,-879.4 403.63,-873.4 403.63,-867.4 403.63,-867.4 403.63,-642.4 403.63,-642.4 403.63,-636.4 409.63,-630.4 415.63,-630.4"/>
<text xml:space="preserve" text-anchor="middle" x="486.97" y="-865.5" font-family="Helvetica,sans-Serif" font-weight="bold" font-size="11.00">shared/components/</text>
</g>
<g id="clust7" class="cluster">
<title>cluster_features</title>
<path fill="#fffbe6" stroke="#d4a017" stroke-width="1.5" d="M20,-355.4C20,-355.4 374.63,-355.4 374.63,-355.4 380.63,-355.4 386.63,-361.4 386.63,-367.4 386.63,-367.4 386.63,-674.4 386.63,-674.4 386.63,-680.4 380.63,-686.4 374.63,-686.4 374.63,-686.4 20,-686.4 20,-686.4 14,-686.4 8,-680.4 8,-674.4 8,-674.4 8,-367.4 8,-367.4 8,-361.4 14,-355.4 20,-355.4"/>
<text xml:space="preserve" text-anchor="middle" x="197.32" y="-672.5" font-family="Helvetica,sans-Serif" font-weight="bold" font-size="11.00">features/</text>
</g>
<g id="clust8" class="cluster">
<title>cluster_case_detail</title>
<path fill="#fff4cc" stroke="#d4a017" stroke-width="1.5" d="M41.25,-482.4C41.25,-482.4 358.63,-482.4 358.63,-482.4 364.63,-482.4 370.63,-488.4 370.63,-494.4 370.63,-494.4 370.63,-637.4 370.63,-637.4 370.63,-643.4 364.63,-649.4 358.63,-649.4 358.63,-649.4 41.25,-649.4 41.25,-649.4 35.25,-649.4 29.25,-643.4 29.25,-637.4 29.25,-637.4 29.25,-494.4 29.25,-494.4 29.25,-488.4 35.25,-482.4 41.25,-482.4"/>
<text xml:space="preserve" text-anchor="middle" x="199.94" y="-637.3" font-family="Helvetica,sans-Serif" font-weight="bold" font-size="9.00">case&#45;detail/</text>
</g>
<g id="clust9" class="cluster">
<title>cluster_case_new</title>
<path fill="#fff4cc" stroke="#d4a017" stroke-width="1.5" d="M36,-371.4C36,-371.4 165.07,-371.4 165.07,-371.4 171.07,-371.4 177.07,-377.4 177.07,-383.4 177.07,-383.4 177.07,-454.4 177.07,-454.4 177.07,-460.4 171.07,-466.4 165.07,-466.4 165.07,-466.4 36,-466.4 36,-466.4 30,-466.4 24,-460.4 24,-454.4 24,-454.4 24,-383.4 24,-383.4 24,-377.4 30,-371.4 36,-371.4"/>
<text xml:space="preserve" text-anchor="middle" x="100.53" y="-454.3" font-family="Helvetica,sans-Serif" font-weight="bold" font-size="9.00">case&#45;new/</text>
</g>
<!-- L1 -->
<g id="node1" class="node">
<title>L1</title>
<path fill="#d0e8ff" stroke="#4a90d9" d="M115.53,-92.4C115.53,-92.4 85.53,-92.4 85.53,-92.4 79.53,-92.4 73.53,-86.4 73.53,-80.4 73.53,-80.4 73.53,-68.4 73.53,-68.4 73.53,-62.4 79.53,-56.4 85.53,-56.4 85.53,-56.4 115.53,-56.4 115.53,-56.4 121.53,-56.4 127.53,-62.4 127.53,-68.4 127.53,-68.4 127.53,-80.4 127.53,-80.4 127.53,-86.4 121.53,-92.4 115.53,-92.4"/>
<text xml:space="preserve" text-anchor="middle" x="100.53" y="-71.4" font-family="Helvetica,sans-Serif" font-size="10.00">core/</text>
</g>
<!-- L2 -->
<g id="node2" class="node">
<title>L2</title>
<path fill="#d5f0d5" stroke="#5a9a5a" d="M305.83,-92.4C305.83,-92.4 274.87,-92.4 274.87,-92.4 268.87,-92.4 262.87,-86.4 262.87,-80.4 262.87,-80.4 262.87,-68.4 262.87,-68.4 262.87,-62.4 268.87,-56.4 274.87,-56.4 274.87,-56.4 305.83,-56.4 305.83,-56.4 311.83,-56.4 317.83,-62.4 317.83,-68.4 317.83,-68.4 317.83,-80.4 317.83,-80.4 317.83,-86.4 311.83,-92.4 305.83,-92.4"/>
<text xml:space="preserve" text-anchor="middle" x="290.35" y="-71.4" font-family="Helvetica,sans-Serif" font-size="10.00">shared/</text>
</g>
<!-- L1&#45;&gt;L2 -->
<!-- L3 -->
<g id="node3" class="node">
<title>L3</title>
<path fill="#fff4cc" stroke="#d4a017" d="M505.22,-92.4C505.22,-92.4 468.71,-92.4 468.71,-92.4 462.71,-92.4 456.71,-86.4 456.71,-80.4 456.71,-80.4 456.71,-68.4 456.71,-68.4 456.71,-62.4 462.71,-56.4 468.71,-56.4 468.71,-56.4 505.22,-56.4 505.22,-56.4 511.22,-56.4 517.22,-62.4 517.22,-68.4 517.22,-68.4 517.22,-80.4 517.22,-80.4 517.22,-86.4 511.22,-92.4 505.22,-92.4"/>
<text xml:space="preserve" text-anchor="middle" x="486.97" y="-71.4" font-family="Helvetica,sans-Serif" font-size="10.00">features/</text>
</g>
<!-- L2&#45;&gt;L3 -->
<!-- L4 -->
<g id="node4" class="node">
<title>L4</title>
<path fill="#ffcccc" stroke="#cc0000" stroke-width="2.5" d="M720.74,-92.4C720.74,-92.4 661.72,-92.4 661.72,-92.4 655.72,-92.4 649.72,-86.4 649.72,-80.4 649.72,-80.4 649.72,-68.4 649.72,-68.4 649.72,-62.4 655.72,-56.4 661.72,-56.4 661.72,-56.4 720.74,-56.4 720.74,-56.4 726.74,-56.4 732.74,-62.4 732.74,-68.4 732.74,-68.4 732.74,-80.4 732.74,-80.4 732.74,-86.4 726.74,-92.4 720.74,-92.4"/>
<text xml:space="preserve" text-anchor="middle" x="691.23" y="-71.4" font-family="Helvetica,sans-Serif" font-size="10.00">★ hub (Ca=6)</text>
</g>
<!-- L3&#45;&gt;L4 -->
<!-- case_store -->
<g id="node5" class="node">
<title>case_store</title>
<path fill="#ffcccc" stroke="#cc0000" stroke-width="2.5" d="M722.11,-598.36C722.11,-598.36 660.36,-598.36 660.36,-598.36 654.36,-598.36 648.36,-592.36 648.36,-586.36 648.36,-586.36 648.36,-572.44 648.36,-572.44 648.36,-566.44 654.36,-560.44 660.36,-560.44 660.36,-560.44 722.11,-560.44 722.11,-560.44 728.11,-560.44 734.11,-566.44 734.11,-572.44 734.11,-572.44 734.11,-586.36 734.11,-586.36 734.11,-592.36 728.11,-598.36 722.11,-598.36"/>
<text xml:space="preserve" text-anchor="middle" x="691.23" y="-582.7" font-family="Helvetica,sans-Serif" font-weight="bold" font-size="11.00" fill="#880000">★ case.store.ts</text>
<text xml:space="preserve" text-anchor="middle" x="691.23" y="-569.5" font-family="Helvetica,sans-Serif" font-weight="bold" font-size="11.00" fill="#880000">Ca=6 | Ce=2</text>
</g>
<!-- extraction_models -->
<g id="node9" class="node">
<title>extraction_models</title>
<path fill="#d0e8ff" stroke="#4a90d9" d="M926.69,-597.4C926.69,-597.4 840.16,-597.4 840.16,-597.4 834.16,-597.4 828.16,-591.4 828.16,-585.4 828.16,-585.4 828.16,-573.4 828.16,-573.4 828.16,-567.4 834.16,-561.4 840.16,-561.4 840.16,-561.4 926.69,-561.4 926.69,-561.4 932.69,-561.4 938.69,-567.4 938.69,-573.4 938.69,-573.4 938.69,-585.4 938.69,-585.4 938.69,-591.4 932.69,-597.4 926.69,-597.4"/>
<text xml:space="preserve" text-anchor="middle" x="883.42" y="-582.4" font-family="Helvetica,sans-Serif" font-size="10.00">extraction.models.ts</text>
<text xml:space="preserve" text-anchor="middle" x="883.42" y="-570.4" font-family="Helvetica,sans-Serif" font-size="10.00">Ca=8 | Ce=0</text>
</g>
<!-- case_store&#45;&gt;extraction_models -->
<g id="edge10" class="edge">
<title>case_store&#45;&gt;extraction_models</title>
<path fill="none" stroke="#4a90d9" stroke-width="1.5" stroke-dasharray="5,2" d="M735.32,-588.4C735.32,-588.4 818.56,-588.4 818.56,-588.4"/>
<polygon fill="#4a90d9" stroke="#4a90d9" stroke-width="1.5" points="818.56,-590.85 825.56,-588.4 818.56,-585.95 818.56,-590.85"/>
</g>
<!-- case_service -->
<g id="node6" class="node">
<title>case_service</title>
<path fill="#d0e8ff" stroke="#4a90d9" d="M723.1,-349.4C723.1,-349.4 659.37,-349.4 659.37,-349.4 653.37,-349.4 647.37,-343.4 647.37,-337.4 647.37,-337.4 647.37,-325.4 647.37,-325.4 647.37,-319.4 653.37,-313.4 659.37,-313.4 659.37,-313.4 723.1,-313.4 723.1,-313.4 729.1,-313.4 735.1,-319.4 735.1,-325.4 735.1,-325.4 735.1,-337.4 735.1,-337.4 735.1,-343.4 729.1,-349.4 723.1,-349.4"/>
<text xml:space="preserve" text-anchor="middle" x="691.23" y="-334.4" font-family="Helvetica,sans-Serif" font-size="10.00">case.service.ts</text>
<text xml:space="preserve" text-anchor="middle" x="691.23" y="-322.4" font-family="Helvetica,sans-Serif" font-size="10.00">Ca=2 | Ce=4</text>
</g>
<!-- case_service&#45;&gt;extraction_models -->
<g id="edge11" class="edge">
<title>case_service&#45;&gt;extraction_models</title>
<path fill="none" stroke="#4a90d9" stroke-width="1.5" stroke-dasharray="5,2" d="M735.35,-331.4C797.06,-331.4 901.69,-331.4 901.69,-331.4 901.69,-331.4 901.69,-551.89 901.69,-551.89"/>
<polygon fill="#4a90d9" stroke="#4a90d9" stroke-width="1.5" points="899.24,-551.89 901.69,-558.89 904.14,-551.89 899.24,-551.89"/>
</g>
<!-- decision_service -->
<g id="node7" class="node">
<title>decision_service</title>
<path fill="#d0e8ff" stroke="#4a90d9" d="M730.88,-493.4C730.88,-493.4 651.58,-493.4 651.58,-493.4 645.58,-493.4 639.58,-487.4 639.58,-481.4 639.58,-481.4 639.58,-469.4 639.58,-469.4 639.58,-463.4 645.58,-457.4 651.58,-457.4 651.58,-457.4 730.88,-457.4 730.88,-457.4 736.88,-457.4 742.88,-463.4 742.88,-469.4 742.88,-469.4 742.88,-481.4 742.88,-481.4 742.88,-487.4 736.88,-493.4 730.88,-493.4"/>
<text xml:space="preserve" text-anchor="middle" x="691.23" y="-478.4" font-family="Helvetica,sans-Serif" font-size="10.00">decision.service.ts</text>
<text xml:space="preserve" text-anchor="middle" x="691.23" y="-466.4" font-family="Helvetica,sans-Serif" font-size="10.00">Ca=1 | Ce=2</text>
</g>
<!-- decision_service&#45;&gt;extraction_models -->
<g id="edge12" class="edge">
<title>decision_service&#45;&gt;extraction_models</title>
<path fill="none" stroke="#4a90d9" stroke-width="1.5" stroke-dasharray="5,2" d="M738.69,-493.52C738.69,-523.31 738.69,-579.4 738.69,-579.4 738.69,-579.4 818.61,-579.4 818.61,-579.4"/>
<polygon fill="#4a90d9" stroke="#4a90d9" stroke-width="1.5" points="818.61,-581.85 825.61,-579.4 818.61,-576.95 818.61,-581.85"/>
</g>
<!-- stream_service -->
<g id="node8" class="node">
<title>stream_service</title>
<path fill="#d0e8ff" stroke="#4a90d9" d="M751.16,-421.4C751.16,-421.4 631.3,-421.4 631.3,-421.4 625.3,-421.4 619.3,-415.4 619.3,-409.4 619.3,-409.4 619.3,-397.4 619.3,-397.4 619.3,-391.4 625.3,-385.4 631.3,-385.4 631.3,-385.4 751.16,-385.4 751.16,-385.4 757.16,-385.4 763.16,-391.4 763.16,-397.4 763.16,-397.4 763.16,-409.4 763.16,-409.4 763.16,-415.4 757.16,-421.4 751.16,-421.4"/>
<text xml:space="preserve" text-anchor="middle" x="691.23" y="-406.4" font-family="Helvetica,sans-Serif" font-size="10.00">extraction&#45;stream.service.ts</text>
<text xml:space="preserve" text-anchor="middle" x="691.23" y="-394.4" font-family="Helvetica,sans-Serif" font-size="10.00">Ca=1 | Ce=5</text>
</g>
<!-- stream_service&#45;&gt;extraction_models -->
<g id="edge13" class="edge">
<title>stream_service&#45;&gt;extraction_models</title>
<path fill="none" stroke="#4a90d9" stroke-width="1.5" stroke-dasharray="5,2" d="M752.69,-421.59C752.69,-464.87 752.69,-570.4 752.69,-570.4 752.69,-570.4 818.71,-570.4 818.71,-570.4"/>
<polygon fill="#4a90d9" stroke="#4a90d9" stroke-width="1.5" points="818.71,-572.85 825.71,-570.4 818.71,-567.95 818.71,-572.85"/>
</g>
<!-- decision_bar -->
<g id="node10" class="node">
<title>decision_bar</title>
<path fill="#d5f0d5" stroke="#5a9a5a" d="M538.55,-690.36C538.55,-690.36 435.39,-690.36 435.39,-690.36 429.39,-690.36 423.39,-684.36 423.39,-678.36 423.39,-678.36 423.39,-658.44 423.39,-658.44 423.39,-652.44 429.39,-646.44 435.39,-646.44 435.39,-646.44 538.55,-646.44 538.55,-646.44 544.55,-646.44 550.55,-652.44 550.55,-658.44 550.55,-658.44 550.55,-678.36 550.55,-678.36 550.55,-684.36 544.55,-690.36 538.55,-690.36"/>
<text xml:space="preserve" text-anchor="middle" x="486.97" y="-676.5" font-family="Helvetica,sans-Serif" font-size="9.00">decision&#45;bar.component.ts</text>
<text xml:space="preserve" text-anchor="middle" x="486.97" y="-665.7" font-family="Helvetica,sans-Serif" font-size="9.00">Ca=1 | Ce=5 | I=71%</text>
<text xml:space="preserve" text-anchor="middle" x="486.97" y="-654.9" font-family="Helvetica,sans-Serif" font-size="9.00">churn: 19 zmian</text>
</g>
<!-- decision_bar&#45;&gt;case_store -->
<g id="edge8" class="edge">
<title>decision_bar&#45;&gt;case_store</title>
<path fill="none" stroke="#cc0000" stroke-width="2" d="M533.69,-646.22C533.69,-623.57 533.69,-591.71 533.69,-591.71 533.69,-591.71 637.32,-591.71 637.32,-591.71"/>
<polygon fill="#cc0000" stroke="#cc0000" stroke-width="2" points="637.32,-594.16 644.32,-591.71 637.32,-589.26 637.32,-594.16"/>
</g>
<!-- decision_bar&#45;&gt;decision_service -->
<g id="edge20" class="edge">
<title>decision_bar&#45;&gt;decision_service</title>
<path fill="none" stroke="#888888" stroke-width="1.5" d="M550.71,-661.08C594.1,-661.08 643.69,-661.08 643.69,-661.08 643.69,-661.08 643.69,-503.15 643.69,-503.15"/>
<polygon fill="#888888" stroke="#888888" stroke-width="1.5" points="646.14,-503.15 643.69,-496.15 641.24,-503.15 646.14,-503.15"/>
</g>
<!-- decision_bar&#45;&gt;extraction_models -->
<g id="edge14" class="edge">
<title>decision_bar&#45;&gt;extraction_models</title>
<path fill="none" stroke="#4a90d9" stroke-width="1.5" stroke-dasharray="5,2" d="M550.77,-675.72C656.31,-675.72 855.69,-675.72 855.69,-675.72 855.69,-675.72 855.69,-606.79 855.69,-606.79"/>
<polygon fill="#4a90d9" stroke="#4a90d9" stroke-width="1.5" points="858.14,-606.79 855.69,-599.79 853.24,-606.79 858.14,-606.79"/>
</g>
<!-- citation_badge -->
<g id="node11" class="node">
<title>citation_badge</title>
<path fill="#d5f0d5" stroke="#5a9a5a" d="M542.3,-762.4C542.3,-762.4 431.63,-762.4 431.63,-762.4 425.63,-762.4 419.63,-756.4 419.63,-750.4 419.63,-750.4 419.63,-738.4 419.63,-738.4 419.63,-732.4 425.63,-726.4 431.63,-726.4 431.63,-726.4 542.3,-726.4 542.3,-726.4 548.3,-726.4 554.3,-732.4 554.3,-738.4 554.3,-738.4 554.3,-750.4 554.3,-750.4 554.3,-756.4 548.3,-762.4 542.3,-762.4"/>
<text xml:space="preserve" text-anchor="middle" x="486.97" y="-747.1" font-family="Helvetica,sans-Serif" font-size="9.00">citation&#45;badge.component.ts</text>
<text xml:space="preserve" text-anchor="middle" x="486.97" y="-736.3" font-family="Helvetica,sans-Serif" font-size="9.00">Ca=2 | Ce=3 | I=60%</text>
</g>
<!-- citation_badge&#45;&gt;case_store -->
<g id="edge9" class="edge">
<title>citation_badge&#45;&gt;case_store</title>
<path fill="none" stroke="#cc0000" stroke-width="2" d="M554.57,-738.4C614.2,-738.4 691.69,-738.4 691.69,-738.4 691.69,-738.4 691.69,-609.56 691.69,-609.56"/>
<polygon fill="#cc0000" stroke="#cc0000" stroke-width="2" points="694.14,-609.56 691.69,-602.56 689.24,-609.56 694.14,-609.56"/>
</g>
<!-- citation_badge&#45;&gt;extraction_models -->
<g id="edge16" class="edge">
<title>citation_badge&#45;&gt;extraction_models</title>
<path fill="none" stroke="#4a90d9" stroke-width="1.5" stroke-dasharray="5,2" d="M554.72,-750.4C668.02,-750.4 883.69,-750.4 883.69,-750.4 883.69,-750.4 883.69,-606.97 883.69,-606.97"/>
<polygon fill="#4a90d9" stroke="#4a90d9" stroke-width="1.5" points="886.14,-606.97 883.69,-599.97 881.24,-606.97 886.14,-606.97"/>
</g>
<!-- pdf_viewer -->
<g id="node12" class="node">
<title>pdf_viewer</title>
<path fill="#d5f0d5" stroke="#5a9a5a" d="M534.79,-842.36C534.79,-842.36 439.15,-842.36 439.15,-842.36 433.15,-842.36 427.15,-836.36 427.15,-830.36 427.15,-830.36 427.15,-810.44 427.15,-810.44 427.15,-804.44 433.15,-798.44 439.15,-798.44 439.15,-798.44 534.79,-798.44 534.79,-798.44 540.79,-798.44 546.79,-804.44 546.79,-810.44 546.79,-810.44 546.79,-830.36 546.79,-830.36 546.79,-836.36 540.79,-842.36 534.79,-842.36"/>
<text xml:space="preserve" text-anchor="middle" x="486.97" y="-828.5" font-family="Helvetica,sans-Serif" font-size="9.00">pdf&#45;viewer.component.ts</text>
<text xml:space="preserve" text-anchor="middle" x="486.97" y="-817.7" font-family="Helvetica,sans-Serif" font-size="9.00">Ca=1 | Ce=3 | I=75%</text>
<text xml:space="preserve" text-anchor="middle" x="486.97" y="-806.9" font-family="Helvetica,sans-Serif" font-size="9.00">churn: 15 zmian</text>
</g>
<!-- pdf_viewer&#45;&gt;extraction_models -->
<g id="edge15" class="edge">
<title>pdf_viewer&#45;&gt;extraction_models</title>
<path fill="none" stroke="#4a90d9" stroke-width="1.5" stroke-dasharray="5,2" d="M547.23,-820.4C664.21,-820.4 910.69,-820.4 910.69,-820.4 910.69,-820.4 910.69,-606.78 910.69,-606.78"/>
<polygon fill="#4a90d9" stroke="#4a90d9" stroke-width="1.5" points="913.14,-606.78 910.69,-599.78 908.24,-606.78 913.14,-606.78"/>
</g>
<!-- case_detail -->
<g id="node13" class="node">
<title>case_detail</title>
<path fill="#ffe066" stroke="#b8860b" stroke-width="2" d="M143.82,-578.36C143.82,-578.36 57.25,-578.36 57.25,-578.36 51.25,-578.36 45.25,-572.36 45.25,-566.36 45.25,-566.36 45.25,-546.44 45.25,-546.44 45.25,-540.44 51.25,-534.44 57.25,-534.44 57.25,-534.44 143.82,-534.44 143.82,-534.44 149.82,-534.44 155.82,-540.44 155.82,-546.44 155.82,-546.44 155.82,-566.36 155.82,-566.36 155.82,-572.36 149.82,-578.36 143.82,-578.36"/>
<text xml:space="preserve" text-anchor="middle" x="100.53" y="-564.5" font-family="Helvetica,sans-Serif" font-weight="bold" font-size="9.00">case&#45;detail.component.ts</text>
<text xml:space="preserve" text-anchor="middle" x="100.53" y="-553.7" font-family="Helvetica,sans-Serif" font-weight="bold" font-size="9.00">Ca=1 | Ce=12 | I=92%</text>
<text xml:space="preserve" text-anchor="middle" x="100.53" y="-542.9" font-family="Helvetica,sans-Serif" font-weight="bold" font-size="9.00">churn: #1 (11 zmian)</text>
</g>
<!-- case_detail&#45;&gt;case_store -->
<g id="edge4" class="edge">
<title>case_detail&#45;&gt;case_store</title>
<path fill="none" stroke="#cc0000" stroke-width="2" d="M156.64,-567.61C156.64,-567.61 637.38,-567.61 637.38,-567.61"/>
<polygon fill="#cc0000" stroke="#cc0000" stroke-width="2" points="637.38,-570.06 644.38,-567.61 637.38,-565.16 637.38,-570.06"/>
</g>
<!-- case_detail&#45;&gt;case_service -->
<g id="edge18" class="edge">
<title>case_detail&#45;&gt;case_service</title>
<path fill="none" stroke="#888888" stroke-width="1.5" d="M156.69,-537.08C171.13,-537.08 182.69,-537.08 182.69,-537.08 182.69,-537.08 182.69,-337.4 182.69,-337.4 182.69,-337.4 637.72,-337.4 637.72,-337.4"/>
<polygon fill="#888888" stroke="#888888" stroke-width="1.5" points="637.72,-339.85 644.72,-337.4 637.72,-334.95 637.72,-339.85"/>
</g>
<!-- case_detail&#45;&gt;decision_bar -->
<g id="edge24" class="edge">
<title>case_detail&#45;&gt;decision_bar</title>
<path fill="none" stroke="#d4a017" stroke-width="1.5" stroke-dasharray="1,5" d="M156.54,-571.19C252.87,-571.19 439.69,-571.19 439.69,-571.19 439.69,-571.19 439.69,-637.07 439.69,-637.07"/>
<polygon fill="#d4a017" stroke="#d4a017" stroke-width="1.5" points="437.24,-637.07 439.69,-644.07 442.14,-637.07 437.24,-637.07"/>
</g>
<!-- case_detail&#45;&gt;pdf_viewer -->
<g id="edge25" class="edge">
<title>case_detail&#45;&gt;pdf_viewer</title>
<path fill="none" stroke="#d4a017" stroke-width="1.5" stroke-dasharray="1,5" d="M100.69,-578.91C100.69,-642.75 100.69,-820.4 100.69,-820.4 100.69,-820.4 417.77,-820.4 417.77,-820.4"/>
<polygon fill="#d4a017" stroke="#d4a017" stroke-width="1.5" points="417.77,-822.85 424.77,-820.4 417.77,-817.95 417.77,-822.85"/>
</g>
<!-- extraction_form -->
<g id="node14" class="node">
<title>extraction_form</title>
<path fill="#ffe066" stroke="#b8860b" stroke-width="2" d="M342.63,-542.36C342.63,-542.36 238.07,-542.36 238.07,-542.36 232.07,-542.36 226.07,-536.36 226.07,-530.36 226.07,-530.36 226.07,-510.44 226.07,-510.44 226.07,-504.44 232.07,-498.44 238.07,-498.44 238.07,-498.44 342.63,-498.44 342.63,-498.44 348.63,-498.44 354.63,-504.44 354.63,-510.44 354.63,-510.44 354.63,-530.36 354.63,-530.36 354.63,-536.36 348.63,-542.36 342.63,-542.36"/>
<text xml:space="preserve" text-anchor="middle" x="290.35" y="-528.5" font-family="Helvetica,sans-Serif" font-weight="bold" font-size="9.00">extraction&#45;form.component.ts</text>
<text xml:space="preserve" text-anchor="middle" x="290.35" y="-517.7" font-family="Helvetica,sans-Serif" font-weight="bold" font-size="9.00">Ca=1 | Ce=8 | I=80%</text>
<text xml:space="preserve" text-anchor="middle" x="290.35" y="-506.9" font-family="Helvetica,sans-Serif" font-weight="bold" font-size="9.00">churn: folder #1 (26 zmian)</text>
</g>
<!-- case_detail&#45;&gt;extraction_form -->
<g id="edge22" class="edge">
<title>case_detail&#45;&gt;extraction_form</title>
<path fill="none" stroke="#d4a017" stroke-width="1.5" stroke-dasharray="1,5" d="M156.71,-539.72C156.71,-539.72 216.03,-539.72 216.03,-539.72"/>
<polygon fill="#d4a017" stroke="#d4a017" stroke-width="1.5" points="216.03,-542.17 223.03,-539.72 216.03,-537.27 216.03,-542.17"/>
</g>
<!-- red_flag_list -->
<g id="node15" class="node">
<title>red_flag_list</title>
<path fill="#fff4cc" stroke="#d4a017" d="M339.67,-614.4C339.67,-614.4 241.03,-614.4 241.03,-614.4 235.03,-614.4 229.03,-608.4 229.03,-602.4 229.03,-602.4 229.03,-590.4 229.03,-590.4 229.03,-584.4 235.03,-578.4 241.03,-578.4 241.03,-578.4 339.67,-578.4 339.67,-578.4 345.67,-578.4 351.67,-584.4 351.67,-590.4 351.67,-590.4 351.67,-602.4 351.67,-602.4 351.67,-608.4 345.67,-614.4 339.67,-614.4"/>
<text xml:space="preserve" text-anchor="middle" x="290.35" y="-599.1" font-family="Helvetica,sans-Serif" font-size="9.00">red&#45;flag&#45;list.component.ts</text>
<text xml:space="preserve" text-anchor="middle" x="290.35" y="-588.3" font-family="Helvetica,sans-Serif" font-size="9.00">Ca=1 | Ce=3 | I=60%</text>
</g>
<!-- case_detail&#45;&gt;red_flag_list -->
<g id="edge23" class="edge">
<title>case_detail&#45;&gt;red_flag_list</title>
<path fill="none" stroke="#d4a017" stroke-width="1.5" stroke-dasharray="1,5" d="M156.81,-574.78C212.88,-574.78 290.69,-574.78 290.69,-574.78 290.69,-574.78 290.69,-575.11 290.69,-575.11"/>
<polygon fill="#d4a017" stroke="#d4a017" stroke-width="1.5" points="288.24,-568.88 290.69,-575.88 293.14,-568.88 288.24,-568.88"/>
</g>
<!-- extraction_form&#45;&gt;case_store -->
<g id="edge5" class="edge">
<title>extraction_form&#45;&gt;case_store</title>
<path fill="none" stroke="#cc0000" stroke-width="2" d="M355.28,-524.79C468.86,-524.79 691.69,-524.79 691.69,-524.79 691.69,-524.79 691.69,-549.35 691.69,-549.35"/>
<polygon fill="#cc0000" stroke="#cc0000" stroke-width="2" points="689.24,-549.35 691.69,-556.35 694.14,-549.35 689.24,-549.35"/>
</g>
<!-- extraction_form&#45;&gt;stream_service -->
<g id="edge21" class="edge">
<title>extraction_form&#45;&gt;stream_service</title>
<path fill="none" stroke="#888888" stroke-width="1.5" d="M355.38,-507.22C453.91,-507.22 629.69,-507.22 629.69,-507.22 629.69,-507.22 629.69,-430.76 629.69,-430.76"/>
<polygon fill="#888888" stroke="#888888" stroke-width="1.5" points="632.14,-430.76 629.69,-423.76 627.24,-430.76 632.14,-430.76"/>
</g>
<!-- extraction_form&#45;&gt;extraction_models -->
<g id="edge17" class="edge">
<title>extraction_form&#45;&gt;extraction_models</title>
<path fill="none" stroke="#4a90d9" stroke-width="1.5" stroke-dasharray="5,2" d="M355.4,-516.01C505.76,-516.01 864.69,-516.01 864.69,-516.01 864.69,-516.01 864.69,-551.79 864.69,-551.79"/>
<polygon fill="#4a90d9" stroke="#4a90d9" stroke-width="1.5" points="862.24,-551.79 864.69,-558.79 867.14,-551.79 862.24,-551.79"/>
</g>
<!-- extraction_form&#45;&gt;citation_badge -->
<g id="edge26" class="edge">
<title>extraction_form&#45;&gt;citation_badge</title>
<path fill="none" stroke="#d4a017" stroke-width="1.5" stroke-dasharray="1,5" d="M355.41,-533.58C372.71,-533.58 386.69,-533.58 386.69,-533.58 386.69,-533.58 386.69,-738.4 386.69,-738.4 386.69,-738.4 409.97,-738.4 409.97,-738.4"/>
<polygon fill="#d4a017" stroke="#d4a017" stroke-width="1.5" points="409.97,-740.85 416.97,-738.4 409.97,-735.95 409.97,-740.85"/>
</g>
<!-- red_flag_list&#45;&gt;case_store -->
<g id="edge6" class="edge">
<title>red_flag_list&#45;&gt;case_store</title>
<path fill="none" stroke="#cc0000" stroke-width="2" d="M352.11,-585.05C352.11,-585.05 637.33,-585.05 637.33,-585.05"/>
<polygon fill="#cc0000" stroke="#cc0000" stroke-width="2" points="637.33,-587.5 644.33,-585.05 637.33,-582.6 637.33,-587.5"/>
</g>
<!-- red_flag_list&#45;&gt;citation_badge -->
<g id="edge27" class="edge">
<title>red_flag_list&#45;&gt;citation_badge</title>
<path fill="none" stroke="#d4a017" stroke-width="1.5" stroke-dasharray="1,5" d="M290.69,-614.67C290.69,-655.46 290.69,-750.4 290.69,-750.4 290.69,-750.4 409.87,-750.4 409.87,-750.4"/>
<polygon fill="#d4a017" stroke="#d4a017" stroke-width="1.5" points="409.87,-752.85 416.87,-750.4 409.87,-747.95 409.87,-752.85"/>
</g>
<!-- case_new -->
<g id="node16" class="node">
<title>case_new</title>
<path fill="#ffe066" stroke="#b8860b" stroke-width="2" d="M149.07,-431.36C149.07,-431.36 52,-431.36 52,-431.36 46,-431.36 40,-425.36 40,-419.36 40,-419.36 40,-399.44 40,-399.44 40,-393.44 46,-387.44 52,-387.44 52,-387.44 149.07,-387.44 149.07,-387.44 155.07,-387.44 161.07,-393.44 161.07,-399.44 161.07,-399.44 161.07,-419.36 161.07,-419.36 161.07,-425.36 155.07,-431.36 149.07,-431.36"/>
<text xml:space="preserve" text-anchor="middle" x="100.53" y="-417.5" font-family="Helvetica,sans-Serif" font-weight="bold" font-size="9.00">case&#45;new.component.ts</text>
<text xml:space="preserve" text-anchor="middle" x="100.53" y="-406.7" font-family="Helvetica,sans-Serif" font-weight="bold" font-size="9.00">Ca=1 | Ce=8 | I=89%</text>
<text xml:space="preserve" text-anchor="middle" x="100.53" y="-395.9" font-family="Helvetica,sans-Serif" font-weight="bold" font-size="9.00">churn: folder #6 (14 zmian)</text>
</g>
<!-- case_new&#45;&gt;case_store -->
<g id="edge7" class="edge">
<title>case_new&#45;&gt;case_store</title>
<path fill="none" stroke="#cc0000" stroke-width="2" d="M162.02,-426.38C184.57,-426.38 204.69,-426.38 204.69,-426.38 204.69,-426.38 204.69,-564.02 204.69,-564.02 204.69,-564.02 637.17,-564.02 637.17,-564.02"/>
<polygon fill="#cc0000" stroke="#cc0000" stroke-width="2" points="637.17,-566.47 644.17,-564.02 637.17,-561.57 637.17,-566.47"/>
</g>
<!-- case_new&#45;&gt;case_service -->
<g id="edge19" class="edge">
<title>case_new&#45;&gt;case_service</title>
<path fill="none" stroke="#888888" stroke-width="1.5" d="M144.69,-386.45C144.69,-361.58 144.69,-325.4 144.69,-325.4 144.69,-325.4 637.7,-325.4 637.7,-325.4"/>
<polygon fill="#888888" stroke="#888888" stroke-width="1.5" points="637.7,-327.85 644.7,-325.4 637.7,-322.95 637.7,-327.85"/>
</g>
</g>
</svg>
